<?xml version="1.0" encoding="UTF-8"?>
<svg id="Capa_2" data-name="Capa 2" xmlns="http://www.w3.org/2000/svg" viewBox="0 0 75 305.41">
  <defs>
    <style>
      .cls-1 {
        fill: #8b0909;
      }

      .cls-1, .cls-2, .cls-3, .cls-4, .cls-5, .cls-6 {
        stroke-width: 0px;
      }

      .cls-2 {
        fill: #404040;
      }

      .cls-3 {
        fill: #a71212;
      }

      .cls-4 {
        fill: #b94040;
      }

      .cls-5 {
        fill: #7d7979;
      }

      .cls-6 {
        fill: #fff;
      }
    </style>
  </defs>
  <g id="Capa_1-2" data-name="Capa 1">
    <g>
      <path class="cls-5" d="m28,36.91c0-3.04,2.46-5.5,5.5-5.5s5.5,2.46,5.5,5.5v261.5c0,3.87-3.13,7-7,7h-4V36.91Z"/>
      <path class="cls-2" d="m30,90.41h0c1.1,0,2,.9,2,2v211c0,1.1-.9,2-2,2h0c-1.1,0-2-.9-2-2V92.41c0-1.1.9-2,2-2Z"/>
      <path class="cls-6" d="m37,33.41h0c1.1,0,2,.9,2,2v211c0,1.1-.9,2-2,2h0c-1.1,0-2-.9-2-2V35.41c0-1.1.9-2,2-2Z"/>
      <g>
        <circle class="cls-3" cx="37.5" cy="37.5" r="37.5"/>
        <circle class="cls-1" cx="28.5" cy="47.5" r="24.5"/>
        <circle class="cls-4" cx="45.5" cy="23.5" r="21.5"/>
        <circle class="cls-4" cx="58.5" cy="52.5" r="5.5"/>
      </g>
    </g>
  </g>
</svg>